<svg width="386" height="138" viewBox="0 0 386 138" fill="none" xmlns="http://www.w3.org/2000/svg">
<g clip-path="url(#clip0_1634_13002)">
<path d="M54.823 50.6695C57.1491 46.0605 58.3146 40.7896 58.3146 34.8567C58.3146 34.6802 58.3 34.1458 58.2707 33.2436C58.2415 32.3414 58.1976 31.6599 58.139 31.1941H36.0138V39.4362H47.035C46.5132 43.0401 45.5037 46.0458 43.9968 48.4434C42.4948 50.8411 40.554 52.6307 38.184 53.8075C35.8139 54.9842 33.0489 55.5579 29.8986 55.5285C25.7047 55.4697 22.213 54.4939 19.4236 52.6062C16.6341 50.7185 14.5421 48.0757 13.1522 44.6876C11.7624 41.2995 11.0699 37.3083 11.0699 32.714C11.0699 28.1197 11.7722 24.104 13.1718 20.6767C14.5762 17.2444 16.6634 14.587 19.4431 12.6944C22.2179 10.8067 25.7047 9.88973 29.8986 9.94857C34.0632 9.94857 37.4915 11.0616 40.1785 13.2877C42.8704 15.5137 44.8064 18.485 45.9914 22.2065L56.6615 20.5051C55.0717 14.0231 52.0286 8.98262 47.5275 5.38859C43.0313 1.79946 36.9355 0 29.2402 0C23.6857 0 18.697 1.29932 14.2739 3.90291C9.85078 6.5065 6.36397 10.2428 3.81837 15.1116C1.27278 19.9854 0 25.8495 0 32.714C0 37.9506 0.751002 42.594 2.25788 46.6489C3.75988 50.7038 5.85194 54.1311 8.5292 56.921C11.2065 59.7109 14.3129 61.8291 17.8582 63.2657C21.3986 64.7073 25.1975 65.4231 29.2451 65.4231C35.2872 65.4231 40.4808 64.1139 44.821 61.4956C49.1612 58.8773 52.4919 55.2638 54.823 50.6548V50.6695Z" fill="white"/>
<path d="M104.389 43.4962H109.509C109.914 37.8576 109.29 32.9544 107.641 28.7965C105.993 24.6386 103.467 21.4173 100.073 19.1324C96.6738 16.8475 92.5434 15.71 87.6862 15.71C83.0876 15.71 79.04 16.7592 75.5386 18.8529C72.0372 20.9465 69.3062 23.8933 67.3409 27.6884C65.3757 31.4834 64.3906 35.9552 64.3906 41.1035C64.3906 45.8743 65.3952 50.0911 67.4043 53.7538C69.4135 57.4164 72.2127 60.2847 75.797 62.3489C79.3814 64.4132 83.546 65.4478 88.2909 65.4478C93.0359 65.4478 96.9323 64.271 100.677 61.9126C104.423 59.5591 107.193 56.2544 108.987 52.0131L98.6635 48.8701C97.6491 51.052 96.2105 52.7143 94.3477 53.8665C92.4799 55.0139 90.2611 55.5875 87.6862 55.5875C83.6972 55.5875 80.659 54.2784 78.5767 51.6601C76.943 49.6057 75.958 46.8794 75.6068 43.5011H104.389V43.4962ZM88.1202 24.9132C91.9093 24.9132 94.6842 26.09 96.4495 28.4484C97.7028 30.1204 98.5172 32.4935 98.8927 35.558H75.8556C76.3335 32.8368 77.2405 30.6156 78.5767 28.9044C80.659 26.2419 83.8385 24.9132 88.1202 24.9132Z" fill="white"/>
<path d="M150.332 41.4467V64.1288H160.919V37.8233C160.919 36.6906 160.826 35.2148 160.636 33.3957C160.446 31.5766 160.036 29.6496 159.397 27.6148C158.763 25.58 157.778 23.6629 156.447 21.8585C155.116 20.0541 153.321 18.5733 151.068 17.4113C148.81 16.2492 145.948 15.6657 142.48 15.6657C138.082 15.6657 134.38 16.6317 131.371 18.5685C129.757 19.6079 128.358 20.8434 127.163 22.2654V17.019H117.834V64.1288H128.421V39.9168C128.421 37.0386 128.738 34.6753 129.377 32.8268C130.011 30.9783 130.859 29.527 131.913 28.4631C132.966 27.3991 134.146 26.6537 135.448 26.2174C136.75 25.781 138.067 25.5653 139.398 25.5653C141.885 25.5653 143.86 26.1046 145.319 27.1784C146.777 28.2571 147.879 29.63 148.615 31.302C149.352 32.974 149.825 34.7146 150.025 36.514C150.224 38.3184 150.327 39.961 150.327 41.4417L150.332 41.4467Z" fill="white"/>
<path d="M213.454 52.0029L203.13 48.8601C202.116 51.042 200.677 52.7041 198.815 53.8564C196.947 55.0037 194.728 55.5774 192.153 55.5774C188.164 55.5774 185.126 54.2682 183.043 51.6499C181.41 49.5955 180.425 46.8693 180.074 43.491H213.976C214.381 37.8523 213.756 32.9492 212.108 28.7913C210.46 24.6334 207.934 21.412 204.54 19.1271C201.141 16.8422 197.01 15.7047 192.153 15.7047C187.554 15.7047 183.507 16.7539 180.005 18.8476C176.504 20.9413 173.773 23.8881 171.808 27.6831C169.843 31.4782 168.857 35.95 168.857 41.0983C168.857 45.8691 169.862 50.0858 171.871 53.7485C173.88 57.4112 176.68 60.2796 180.264 62.3438C183.848 64.408 188.013 65.4425 192.758 65.4425C197.503 65.4425 201.399 64.2658 205.144 61.9073C208.89 59.5538 211.659 56.2491 213.454 52.0079V52.0029ZM192.587 24.9129C196.376 24.9129 199.151 26.0896 200.916 28.4481C202.17 30.12 202.984 32.4932 203.359 35.5577H180.322C180.8 32.8364 181.707 30.6152 183.043 28.904C185.126 26.2416 188.305 24.9129 192.587 24.9129Z" fill="white"/>
<path d="M234.191 40.1812C234.191 38.3768 234.405 36.6999 234.839 35.1407C235.273 33.5864 235.946 32.1988 236.858 30.973C237.77 29.7472 238.946 28.747 240.394 27.9625C241.837 27.0898 243.466 26.5798 245.275 26.4376C247.085 26.2905 248.679 26.4229 250.069 26.8299V17.0137C248.679 16.7832 247.25 16.7146 245.773 16.8176C244.3 16.9206 242.857 17.1951 241.457 17.6462C240.052 18.0973 238.775 18.7151 237.619 19.4996C236.258 20.343 235.093 21.4119 234.127 22.7063C233.688 23.2947 233.294 23.9125 232.933 24.5548V17.0137H223.691V64.1235H234.191V40.1763V40.1812Z" fill="white"/>
<path d="M270.33 65.4376C274.553 65.4376 278.074 64.6433 280.892 63.0596C283.063 61.8387 285.023 60.0784 286.769 57.7789V64.1285H295.922V35.2095C295.922 33.1747 295.834 31.2919 295.664 29.561C295.488 27.8302 294.986 26.1386 294.147 24.4813C292.616 21.3678 290.265 19.132 287.096 17.764C283.931 16.396 280.263 15.7145 276.099 15.7145C270.574 15.7145 266.185 16.9206 262.932 19.333C259.679 21.7453 257.47 24.9471 256.314 28.9285L265.858 31.9391C266.638 29.5268 268.013 27.8253 269.979 26.8349C271.944 25.8444 273.982 25.3492 276.094 25.3492C279.595 25.3492 282.082 26.119 283.555 27.6586C284.779 28.9383 285.481 30.8212 285.667 33.2875C283.779 33.567 281.936 33.8366 280.151 34.0916C277.186 34.5133 274.441 34.9693 271.91 35.4645C269.379 35.9597 267.174 36.5088 265.292 37.1217C262.805 37.9651 260.781 39.0487 259.216 40.3726C257.655 41.6964 256.495 43.2654 255.744 45.0845C254.993 46.9035 254.617 48.9433 254.617 51.2134C254.617 53.8023 255.217 56.1706 256.417 58.323C257.616 60.4755 259.387 62.1966 261.732 63.491C264.078 64.7855 266.94 65.4327 270.325 65.4327L270.33 65.4376ZM265.536 48.4236C265.985 47.6685 266.628 46.9967 267.467 46.4181C268.306 45.8346 269.335 45.3297 270.549 44.8933C271.793 44.4863 273.226 44.1137 274.845 43.7803C276.464 43.4468 278.4 43.0889 280.658 42.7114C282.102 42.4711 283.731 42.2063 285.545 41.9121C285.525 42.7113 285.496 43.6234 285.457 44.6481C285.384 46.379 285.072 47.9136 284.526 49.2522C284.179 50.3309 283.506 51.4782 282.507 52.6991C281.507 53.92 280.171 54.9546 278.493 55.798C276.816 56.6413 274.792 57.063 272.417 57.063C270.769 57.063 269.388 56.8031 268.272 56.2785C267.155 55.7538 266.311 55.0526 265.736 54.1652C265.156 53.2777 264.868 52.2529 264.868 51.0909C264.868 50.071 265.092 49.1885 265.541 48.4285L265.536 48.4236Z" fill="white"/>
<path d="M334.668 25.261V17.0187H320.916V3.93219H310.505V17.0187H302V25.261H310.505V44.8885C310.505 47.5656 310.534 49.9632 310.593 52.0863C310.651 54.2094 311.212 56.2883 312.285 58.3231C313.499 60.5639 315.279 62.1966 317.62 63.2312C319.961 64.2658 322.614 64.815 325.578 64.8885C328.543 64.9621 331.572 64.7071 334.668 64.1236V55.3126C331.747 55.749 329.143 55.8666 326.861 55.6607C324.574 55.4597 322.911 54.484 321.872 52.7384C321.321 51.8363 321.029 50.6741 320.985 49.2473C320.941 47.8205 320.921 46.1633 320.921 44.2756V25.2561H334.673L334.668 25.261Z" fill="white"/>
<path d="M375.471 19.1324C372.072 16.8475 367.942 15.71 363.085 15.71C358.486 15.71 354.438 16.7592 350.937 18.8529C347.436 20.9465 344.705 23.8933 342.739 27.6884C340.774 31.4834 339.789 35.9552 339.789 41.1035C339.789 45.8743 340.794 50.0911 342.803 53.7538C344.812 57.4164 347.611 60.2847 351.196 62.3489C354.78 64.4132 358.944 65.4478 363.689 65.4478C368.434 65.4478 372.331 64.271 376.076 61.9126C379.821 59.5591 382.591 56.2544 384.386 52.0131L374.062 48.8701C373.048 51.052 371.609 52.7143 369.746 53.8665C367.878 55.0139 365.66 55.5875 363.085 55.5875C359.096 55.5875 356.058 54.2784 353.975 51.6601C352.342 49.6057 351.356 46.8794 351.005 43.5011H384.908C385.312 37.8625 384.688 32.9593 383.04 28.8014C381.392 24.6435 378.865 21.4222 375.471 19.1373V19.1324ZM363.519 24.9132C367.308 24.9132 370.083 26.09 371.848 28.4484C373.101 30.1204 373.916 32.4935 374.291 35.558H351.254C351.732 32.8368 352.639 30.6156 353.975 28.9044C356.058 26.2419 359.237 24.9132 363.519 24.9132Z" fill="white"/>
<path d="M17.0777 74.9108H6.79297V136.71H44.2259V127.007H17.0777V74.9108Z" fill="white"/>
<path d="M87.8091 97.6955C86.3022 94.636 83.9906 92.4295 80.8745 91.0861C77.7583 89.7426 74.1496 89.0708 70.0533 89.0708C64.6158 89.0708 60.3 90.2574 57.101 92.6305C53.9019 95.0037 51.7318 98.1515 50.5907 102.074L59.983 105.036C60.7536 102.662 62.1044 100.986 64.0404 100.015C65.9764 99.0439 67.9807 98.5536 70.0582 98.5536C73.5011 98.5536 75.9491 99.3136 77.3974 100.829C78.602 102.089 79.2896 103.942 79.4749 106.369C77.6169 106.644 75.8028 106.909 74.0472 107.159C71.131 107.575 68.4293 108.027 65.9374 108.512C63.4454 108.997 61.2753 109.542 59.4271 110.145C56.979 110.973 54.9894 112.042 53.4533 113.342C51.9171 114.646 50.776 116.19 50.0396 117.975C49.2984 119.765 48.9277 121.775 48.9277 124.006C48.9277 126.551 49.5178 128.885 50.6979 131.003C51.8781 133.121 53.624 134.818 55.9257 136.087C58.2275 137.357 61.0462 138 64.3769 138C68.5318 138 71.9941 137.22 74.7689 135.661C76.9049 134.46 78.8312 132.724 80.5527 130.468V136.715H89.5597V108.262C89.5597 106.261 89.4768 104.408 89.3013 102.707C89.1306 101.005 88.6332 99.3381 87.8091 97.7053V97.6955ZM78.3338 122.074C77.9924 123.133 77.3292 124.261 76.349 125.462C75.3688 126.664 74.0521 127.679 72.3989 128.507C70.7506 129.336 68.7561 129.753 66.425 129.753C64.8011 129.753 63.4454 129.493 62.3482 128.978C61.251 128.463 60.4219 127.772 59.8514 126.894C59.2808 126.021 58.998 125.011 58.998 123.869C58.998 122.869 59.2174 121.996 59.6612 121.25C60.1001 120.505 60.734 119.848 61.5582 119.274C62.3823 118.701 63.3918 118.201 64.5866 117.774C65.8106 117.372 67.2199 117.009 68.8146 116.681C70.4093 116.352 72.316 115.999 74.5349 115.631C75.954 115.396 77.5584 115.131 79.3384 114.847C79.3189 115.631 79.2896 116.529 79.2506 117.539C79.1774 119.24 78.8751 120.75 78.3338 122.064V122.074Z" fill="white"/>
<path d="M133.755 92.268C130.556 90.1351 126.776 89.0711 122.421 89.0711C118.067 89.0711 114.36 90.1351 111.386 92.268C111.23 92.3807 111.088 92.4985 110.937 92.6162V74.9108H100.564V136.71H109.654V133.293C110.235 133.822 110.84 134.323 111.488 134.779C114.531 136.926 118.301 137.995 122.802 137.995C127.04 137.995 130.741 136.921 133.901 134.779C137.061 132.631 139.509 129.714 141.24 126.021C142.976 122.329 143.844 118.167 143.844 113.533C143.844 108.9 142.962 104.658 141.196 100.981C139.431 97.3035 136.949 94.4008 133.75 92.268H133.755ZM131.707 121.236C130.868 123.54 129.58 125.364 127.844 126.708C126.108 128.051 123.904 128.723 121.227 128.723C118.549 128.723 116.238 128.086 114.546 126.816C112.854 125.541 111.615 123.761 110.83 121.471C110.045 119.182 109.654 116.534 109.654 113.533C109.654 110.532 110.045 107.845 110.83 105.57C111.61 103.295 112.829 101.52 114.477 100.25C116.126 98.9755 118.262 98.3431 120.88 98.3431C123.641 98.3431 125.918 99.0246 127.708 100.383C129.502 101.741 130.824 103.575 131.677 105.874C132.531 108.179 132.96 110.733 132.96 113.533C132.96 116.333 132.54 118.931 131.702 121.236H131.707Z" fill="white"/>
<path d="M182.756 112.523C180.552 111.307 177.611 110.228 173.944 109.282C170.359 108.365 167.663 107.595 165.853 106.963C164.044 106.335 162.844 105.702 162.245 105.075C161.645 104.447 161.347 103.687 161.347 102.8C161.347 101.226 162.089 100.005 163.566 99.1321C165.044 98.2594 166.995 97.8965 169.413 98.0387C171.944 98.1809 173.973 98.8282 175.494 99.9707C177.016 101.113 177.908 102.672 178.162 104.648L188.661 102.761C188.261 99.9854 187.208 97.5681 185.501 95.5087C183.794 93.4494 181.551 91.8608 178.776 90.7429C176.002 89.6249 172.822 89.0708 169.238 89.0708C165.653 89.0708 162.381 89.6494 159.675 90.8065C156.973 91.9637 154.866 93.6161 153.359 95.7637C151.853 97.9113 151.097 100.427 151.097 103.315C151.097 105.634 151.594 107.605 152.589 109.238C153.584 110.87 155.222 112.278 157.5 113.464C159.777 114.651 162.849 115.759 166.721 116.788C170.194 117.705 172.768 118.461 174.446 119.064C176.124 119.667 177.211 120.285 177.713 120.932C178.211 121.574 178.459 122.427 178.459 123.486C178.459 125.202 177.782 126.556 176.431 127.541C175.08 128.527 173.163 129.022 170.691 129.022C167.872 129.022 165.541 128.365 163.693 127.046C161.845 125.732 160.65 123.928 160.109 121.638L149.609 123.27C150.38 127.933 152.54 131.552 156.095 134.126C159.65 136.7 164.273 137.99 169.969 137.99C175.665 137.99 180.576 136.661 183.95 133.999C187.325 131.336 189.008 127.679 189.008 123.011C189.008 120.608 188.515 118.564 187.535 116.872C186.555 115.185 184.96 113.734 182.756 112.518V112.523Z" fill="white"/>
<path d="M250.136 123.394C245.293 114.382 240.446 105.37 235.613 96.3527C235.423 95.9948 235.321 95.5927 235.321 95.1858C235.306 89.5962 235.262 84.0015 235.33 78.4119C235.355 76.2398 233.838 74.8866 231.819 74.9111C226.601 74.9699 221.388 74.9307 216.17 74.9307C213.966 74.9307 212.747 76.1467 212.747 78.3531C212.747 83.9673 212.752 89.5815 212.732 95.1956C212.732 95.6026 212.63 96.0046 212.435 96.3674C207.231 106.071 202.013 115.764 196.8 125.458C195.254 128.331 195.337 131.146 197.293 133.837C198.351 135.289 199.96 136.176 201.706 136.573C201.76 136.583 201.813 136.598 201.867 136.613C202.077 136.672 202.296 136.706 202.516 136.706H245.425C245.693 136.706 245.957 136.662 246.21 136.578C247.083 136.274 247.995 136.034 248.775 135.573C250.799 134.377 251.93 132.523 252.233 130.17C252.238 130.131 252.247 130.091 252.257 130.057C252.32 129.832 252.33 129.596 252.33 129.361V128.924C252.33 128.807 252.325 128.684 252.306 128.567C252.038 126.654 251.019 125.051 250.131 123.394H250.136ZM224.621 96.3527C224.651 96.2791 224.704 96.2448 224.782 96.2252C225.031 96.1566 225.275 96.0879 225.524 96.0144C226.231 95.7937 226.718 95.3328 226.957 94.6218C227.05 94.3571 227.118 94.0825 227.191 93.808C227.211 93.7344 227.25 93.6854 227.318 93.6559H227.372C227.445 93.6805 227.479 93.7344 227.499 93.808C227.567 94.058 227.63 94.3081 227.708 94.5533C227.947 95.3132 228.454 95.8085 229.215 96.0291C229.449 96.0978 229.688 96.1664 229.922 96.2301C230.015 96.2546 230.054 96.3037 230.059 96.3723C230.059 96.4459 230.015 96.4949 229.922 96.5243C229.639 96.6077 229.352 96.6763 229.074 96.7744C228.362 97.0245 227.903 97.5246 227.694 98.2503C227.625 98.4905 227.557 98.7308 227.489 98.9661C227.464 99.0593 227.416 99.1083 227.343 99.1034C227.269 99.1034 227.221 99.0593 227.196 98.9612C227.118 98.6817 227.05 98.4023 226.957 98.1277C226.718 97.4216 226.235 96.9558 225.524 96.7351C225.28 96.6567 225.031 96.5881 224.782 96.5243C224.709 96.5047 224.651 96.4704 224.621 96.3969V96.3429V96.3527ZM222.017 110.18C222.076 110.037 222.183 109.974 222.329 109.934C222.812 109.802 223.3 109.67 223.778 109.518C225.168 109.086 226.114 108.179 226.582 106.792C226.757 106.267 226.894 105.732 227.04 105.198C227.079 105.056 227.152 104.953 227.289 104.904H227.396C227.533 104.953 227.606 105.056 227.645 105.198C227.776 105.683 227.908 106.174 228.059 106.654C228.528 108.145 229.518 109.111 231.01 109.547C231.468 109.679 231.931 109.812 232.395 109.944C232.57 109.993 232.658 110.087 232.658 110.229C232.658 110.371 232.575 110.469 232.39 110.523C231.839 110.685 231.273 110.817 230.732 111.008C229.337 111.499 228.445 112.474 228.03 113.901C227.894 114.367 227.762 114.838 227.63 115.308C227.577 115.495 227.484 115.583 227.343 115.583C227.201 115.583 227.108 115.495 227.055 115.308C226.899 114.764 226.762 114.215 226.582 113.681C226.114 112.293 225.168 111.391 223.778 110.954C223.3 110.807 222.817 110.67 222.329 110.538C222.183 110.498 222.076 110.43 222.017 110.292V110.185V110.18ZM215.166 103.178C215.205 103.085 215.273 103.046 215.366 103.016C215.678 102.933 215.99 102.845 216.297 102.746C217.189 102.467 217.799 101.883 218.101 100.991C218.213 100.653 218.301 100.31 218.399 99.9664C218.423 99.8732 218.472 99.8094 218.56 99.7751H218.628C218.716 99.8094 218.765 99.8732 218.789 99.9664C218.872 100.28 218.96 100.594 219.057 100.903C219.359 101.864 219.998 102.482 220.959 102.766C221.256 102.854 221.554 102.938 221.851 103.021C221.964 103.055 222.022 103.114 222.022 103.202C222.022 103.296 221.968 103.359 221.851 103.394C221.495 103.497 221.135 103.585 220.783 103.707C219.886 104.026 219.311 104.654 219.043 105.571C218.955 105.87 218.872 106.174 218.784 106.478C218.75 106.595 218.687 106.654 218.599 106.654C218.511 106.654 218.448 106.595 218.413 106.478C218.311 106.13 218.228 105.772 218.111 105.428C217.809 104.536 217.199 103.953 216.307 103.673C216 103.575 215.687 103.492 215.375 103.404C215.283 103.379 215.214 103.335 215.175 103.242V103.173L215.166 103.178ZM242.665 129.454C242.094 129.787 241.343 129.935 240.675 129.939C237.895 129.959 235.116 129.964 232.341 129.964C229.561 129.964 226.782 129.964 224.007 129.964C221.232 129.964 218.428 129.964 215.643 129.964C212.854 129.964 210.065 129.964 207.28 129.964C205.715 129.964 204.666 129.287 204.174 127.973C203.832 127.066 203.964 126.188 204.418 125.36C205.749 122.933 207.08 120.506 208.441 118.098C209.094 116.941 210.123 116.412 211.45 116.544C213.785 116.779 215.921 117.701 218.082 118.53C220.335 119.393 222.578 120.305 224.87 121.04C227.557 121.908 230.249 121.57 232.858 120.589C234.072 120.133 235.243 119.554 236.413 118.991C238.056 118.196 240.031 118.824 240.924 120.427C241.826 122.045 242.733 123.663 243.611 125.296C244.479 126.899 244.138 128.601 242.675 129.459L242.665 129.454Z" fill="white"/>
<path d="M370.452 75.4304H280.367C277.426 75.4304 274.836 77.3917 274.027 80.2306L260.543 127.438C259.334 131.68 262.499 135.901 266.883 135.901H357.9C360.889 135.901 363.503 133.881 364.274 130.983L376.831 83.7756C377.953 79.5638 374.793 75.4304 370.457 75.4304H370.452ZM281.532 115.494H276.787V110.723H281.532V115.494ZM305.228 115.494L303.316 109.468H292.417L290.529 115.494H285.765L294.489 87.6687H301.273L309.997 115.494H305.232H305.228ZM331.727 110.684C330.947 112.346 329.845 113.66 328.421 114.626C326.997 115.592 325.334 116.078 323.422 116.078C321.398 116.078 319.701 115.592 318.331 114.626C318.243 114.568 318.165 114.499 318.082 114.435V124.771H313.411V94.6263H317.502V96.1218C317.751 95.8963 318.004 95.6805 318.282 95.4844C319.623 94.5233 321.276 94.0429 323.251 94.0429C325.227 94.0429 326.914 94.5233 328.352 95.4844C329.796 96.4454 330.913 97.7496 331.708 99.4069C332.502 101.064 332.897 102.947 332.897 105.06C332.897 107.174 332.507 109.022 331.727 110.684ZM355.403 110.684C354.623 112.346 353.521 113.66 352.097 114.626C350.673 115.592 349.01 116.078 347.098 116.078C345.074 116.078 343.377 115.592 342.007 114.626C341.919 114.568 341.841 114.499 341.758 114.435V124.771H337.087V94.6263H341.178V96.1218C341.427 95.8963 341.68 95.6805 341.958 95.4844C343.299 94.5233 344.952 94.0429 346.928 94.0429C348.903 94.0429 350.59 94.5233 352.028 95.4844C353.472 96.4454 354.589 97.7496 355.384 99.4069C356.178 101.064 356.573 102.947 356.573 105.06C356.573 107.174 356.183 109.022 355.403 110.684Z" fill="white"/>
<path d="M349.313 99.1424C348.503 98.5295 347.479 98.2256 346.236 98.2256C345.056 98.2256 344.095 98.51 343.354 99.0836C342.612 99.6573 342.061 100.456 341.71 101.481C341.359 102.506 341.184 103.702 341.184 105.065C341.184 106.429 341.359 107.61 341.71 108.64C342.061 109.67 342.622 110.474 343.383 111.047C344.144 111.621 345.148 111.905 346.392 111.905C347.635 111.905 348.586 111.601 349.371 110.998C350.152 110.39 350.732 109.572 351.112 108.537C351.488 107.498 351.678 106.345 351.678 105.07C351.678 103.796 351.488 102.658 351.103 101.623C350.717 100.589 350.122 99.7602 349.318 99.1522L349.313 99.1424Z" fill="white"/>
<path d="M325.637 99.1424C324.828 98.5295 323.804 98.2256 322.56 98.2256C321.38 98.2256 320.419 98.51 319.678 99.0836C318.937 99.6573 318.386 100.456 318.035 101.481C317.683 102.506 317.508 103.702 317.508 105.065C317.508 106.429 317.683 107.61 318.035 108.64C318.386 109.67 318.946 110.474 319.707 111.047C320.468 111.621 321.472 111.905 322.716 111.905C323.96 111.905 324.911 111.601 325.696 110.998C326.476 110.39 327.056 109.572 327.437 108.537C327.812 107.498 328.002 106.345 328.002 105.07C328.002 103.796 327.812 102.658 327.427 101.623C327.042 100.589 326.447 99.7602 325.642 99.1522L325.637 99.1424Z" fill="white"/>
<path d="M293.777 105.124H301.936L297.83 92.1796L293.777 105.124Z" fill="white"/>
</g>
<defs>
<clipPath id="clip0_1634_13002">
<rect width="386" height="138" fill="white"/>
</clipPath>
</defs>
</svg>
