<svg width="290" height="323" viewBox="0 0 290 323" fill="none" xmlns="http://www.w3.org/2000/svg">
<path d="M0 269.938C0 245.762 19.5981 226.164 43.7736 226.164H204.277C228.452 226.164 248.05 245.762 248.05 269.938V279.057C248.05 303.233 228.452 322.831 204.277 322.831H43.7736C19.5981 322.831 0 303.233 0 279.057V269.938Z" fill="#2384F8"/>
<path fill-rule="evenodd" clip-rule="evenodd" d="M56.7686 261.731C54.1244 261.731 51.9809 263.875 51.9809 266.519V282.478C51.9809 285.122 54.1244 287.266 56.7686 287.266H72.7277C75.3719 287.266 77.5155 285.122 77.5155 282.478V276.095C77.5155 275.213 78.23 274.499 79.1114 274.499C79.9928 274.499 80.7073 275.213 80.7073 276.095V282.478C80.7073 286.885 77.1347 290.458 72.7277 290.458H56.7686C52.3616 290.458 48.7891 286.885 48.7891 282.478V266.519C48.7891 262.112 52.3616 258.54 56.7686 258.54H63.1523C64.0337 258.54 64.7482 259.254 64.7482 260.135C64.7482 261.017 64.0337 261.731 63.1523 261.731H56.7686Z" fill="white"/>
<path fill-rule="evenodd" clip-rule="evenodd" d="M80.2399 259.007C80.8632 259.63 80.8632 260.641 80.2399 261.264L65.8767 275.627C65.2535 276.25 64.243 276.25 63.6198 275.627C62.9965 275.004 62.9965 273.993 63.6198 273.37L77.983 259.007C78.6062 258.384 79.6167 258.384 80.2399 259.007Z" fill="white"/>
<path fill-rule="evenodd" clip-rule="evenodd" d="M67.9395 260.135C67.9395 259.254 68.654 258.54 69.5354 258.54H79.1108C79.9922 258.54 80.7067 259.254 80.7067 260.135V269.711C80.7067 270.592 79.9922 271.307 79.1108 271.307C78.2294 271.307 77.5149 270.592 77.5149 269.711V261.731H69.5354C68.654 261.731 67.9395 261.017 67.9395 260.135Z" fill="#2384F8"/>
<path d="M104.711 284.531V263.308H111.882C113.547 263.308 114.908 263.608 115.965 264.209C117.029 264.804 117.817 265.608 118.328 266.624C118.839 267.64 119.095 268.773 119.095 270.023C119.095 271.274 118.839 272.41 118.328 273.432C117.824 274.455 117.043 275.27 115.986 275.878C114.929 276.479 113.575 276.78 111.924 276.78H106.784V274.5H111.841C112.981 274.5 113.896 274.303 114.587 273.909C115.278 273.515 115.779 272.983 116.09 272.313C116.407 271.636 116.566 270.873 116.566 270.023C116.566 269.173 116.407 268.413 116.09 267.743C115.779 267.073 115.274 266.548 114.577 266.168C113.879 265.781 112.953 265.588 111.799 265.588H107.281V284.531H104.711Z" fill="white"/>
<path d="M132.935 278.023V268.614H135.38V284.531H132.935V281.837H132.769C132.396 282.645 131.816 283.333 131.028 283.899C130.24 284.459 129.245 284.739 128.043 284.739C127.049 284.739 126.164 284.521 125.39 284.086C124.617 283.644 124.009 282.98 123.567 282.096C123.124 281.205 122.903 280.082 122.903 278.728V268.614H125.349V278.562C125.349 279.723 125.674 280.649 126.323 281.339C126.979 282.03 127.815 282.376 128.831 282.376C129.439 282.376 130.057 282.22 130.686 281.909C131.322 281.599 131.854 281.122 132.282 280.479C132.717 279.837 132.935 279.018 132.935 278.023Z" fill="white"/>
<path d="M140.191 284.531V263.308H142.637V271.142H142.844C143.024 270.866 143.273 270.514 143.591 270.085C143.915 269.65 144.378 269.263 144.979 268.925C145.587 268.579 146.409 268.406 147.446 268.406C148.786 268.406 149.967 268.741 150.99 269.412C152.012 270.082 152.81 271.032 153.384 272.261C153.957 273.491 154.244 274.942 154.244 276.614C154.244 278.3 153.957 279.761 153.384 280.998C152.81 282.227 152.016 283.181 151 283.858C149.985 284.528 148.814 284.863 147.487 284.863C146.465 284.863 145.646 284.694 145.031 284.355C144.416 284.01 143.943 283.619 143.611 283.184C143.28 282.742 143.024 282.376 142.844 282.086H142.554V284.531H140.191ZM142.596 276.572C142.596 277.775 142.772 278.835 143.124 279.754C143.477 280.666 143.991 281.381 144.668 281.899C145.345 282.41 146.174 282.666 147.155 282.666C148.178 282.666 149.031 282.397 149.715 281.858C150.406 281.312 150.924 280.58 151.27 279.661C151.622 278.735 151.798 277.706 151.798 276.572C151.798 275.453 151.625 274.445 151.28 273.546C150.941 272.641 150.427 271.926 149.736 271.401C149.052 270.869 148.192 270.603 147.155 270.603C146.161 270.603 145.325 270.856 144.648 271.36C143.971 271.857 143.459 272.555 143.114 273.453C142.768 274.344 142.596 275.384 142.596 276.572Z" fill="white"/>
<path d="M160.431 263.308V284.531H157.985V263.308H160.431Z" fill="white"/>
<path d="M164.91 284.531V268.614H167.356V284.531H164.91ZM166.154 265.961C165.677 265.961 165.266 265.798 164.92 265.474C164.582 265.149 164.413 264.759 164.413 264.303C164.413 263.847 164.582 263.456 164.92 263.132C165.266 262.807 165.677 262.645 166.154 262.645C166.63 262.645 167.038 262.807 167.376 263.132C167.722 263.456 167.895 263.847 167.895 264.303C167.895 264.759 167.722 265.149 167.376 265.474C167.038 265.798 166.63 265.961 166.154 265.961Z" fill="white"/>
<path d="M183.11 272.179L180.913 272.8C180.775 272.434 180.571 272.078 180.302 271.733C180.039 271.381 179.68 271.09 179.224 270.862C178.768 270.634 178.184 270.52 177.473 270.52C176.498 270.52 175.687 270.745 175.037 271.194C174.395 271.636 174.074 272.199 174.074 272.883C174.074 273.491 174.295 273.971 174.737 274.324C175.179 274.676 175.87 274.97 176.809 275.205L179.172 275.785C180.595 276.13 181.656 276.659 182.354 277.37C183.051 278.075 183.4 278.984 183.4 280.096C183.4 281.008 183.138 281.823 182.613 282.542C182.095 283.26 181.369 283.827 180.436 284.241C179.504 284.656 178.419 284.863 177.182 284.863C175.559 284.863 174.215 284.511 173.151 283.806C172.087 283.101 171.414 282.072 171.13 280.718L173.452 280.137C173.673 280.994 174.091 281.637 174.706 282.065C175.327 282.493 176.139 282.707 177.141 282.707C178.281 282.707 179.186 282.466 179.856 281.982C180.533 281.491 180.872 280.904 180.872 280.22C180.872 279.668 180.678 279.205 180.291 278.832C179.904 278.452 179.31 278.168 178.509 277.982L175.856 277.36C174.398 277.015 173.327 276.479 172.643 275.754C171.966 275.021 171.628 274.106 171.628 273.008C171.628 272.109 171.88 271.315 172.384 270.624C172.896 269.933 173.59 269.391 174.467 268.997C175.352 268.603 176.353 268.406 177.473 268.406C179.048 268.406 180.284 268.752 181.183 269.443C182.088 270.134 182.73 271.046 183.11 272.179Z" fill="white"/>
<path d="M189.527 274.956V284.531H187.082V263.308H189.527V271.101H189.735C190.108 270.279 190.667 269.626 191.414 269.142C192.167 268.652 193.168 268.406 194.419 268.406C195.503 268.406 196.453 268.624 197.269 269.059C198.084 269.488 198.716 270.147 199.165 271.039C199.621 271.923 199.849 273.049 199.849 274.417V284.531H197.403V274.583C197.403 273.318 197.075 272.341 196.419 271.65C195.769 270.952 194.868 270.603 193.714 270.603C192.913 270.603 192.194 270.773 191.559 271.111C190.93 271.45 190.432 271.944 190.066 272.593C189.707 273.242 189.527 274.03 189.527 274.956Z" fill="white"/>
<path d="M0 43.7736C0 19.5981 19.5981 0 43.7736 0H204.277C228.452 0 248.05 19.5981 248.05 43.7736V52.8931C248.05 77.0686 228.452 96.6667 204.277 96.6667H43.7736C19.5981 96.6667 0 77.0686 0 52.8931V43.7736Z" fill="white"/>
<path d="M3.64844 156.856C3.64844 132.68 23.2465 113.082 47.422 113.082H246.227C270.403 113.082 290.001 132.68 290.001 156.856V165.975C290.001 190.151 270.403 209.749 246.227 209.749H47.422C23.2465 209.749 3.64844 190.151 3.64844 165.975V156.856Z" fill="white"/>
<path d="M68.3641 47.9809H77.9396M68.3641 54.9745H77.9396M81.1314 63.7166H65.1723C64.3258 63.7166 63.5139 63.3482 62.9153 62.6924C62.3167 62.0367 61.9805 61.1472 61.9805 60.2198V35.742C61.9805 34.8145 62.3167 33.9251 62.9153 33.2693C63.5139 32.6135 64.3258 32.2451 65.1723 32.2451H74.0871C74.5103 32.2452 74.9161 32.4295 75.2154 32.7574L83.8556 42.2233C84.1549 42.5512 84.3231 42.9958 84.3232 43.4595V60.2198C84.3232 61.1472 83.987 62.0367 83.3884 62.6924C82.7898 63.3482 81.9779 63.7166 81.1314 63.7166Z" stroke="#1E1E1E" stroke-width="2" stroke-linecap="round" stroke-linejoin="round"/>
<path d="M113.113 59.3642V38.1406H125.839V40.4205H115.683V47.5917H124.886V49.8716H115.683V59.3642H113.113Z" fill="#1E1E1E"/>
<path d="M135.207 59.6958C133.77 59.6958 132.509 59.3538 131.425 58.6699C130.347 57.9859 129.504 57.029 128.896 55.7993C128.295 54.5695 127.995 53.1325 127.995 51.4883C127.995 49.8302 128.295 48.3828 128.896 47.1461C129.504 45.9095 130.347 44.9492 131.425 44.2652C132.509 43.5812 133.77 43.2393 135.207 43.2393C136.644 43.2393 137.902 43.5812 138.979 44.2652C140.064 44.9492 140.907 45.9095 141.508 47.1461C142.116 48.3828 142.42 49.8302 142.42 51.4883C142.42 53.1325 142.116 54.5695 141.508 55.7993C140.907 57.029 140.064 57.9859 138.979 58.6699C137.902 59.3538 136.644 59.6958 135.207 59.6958ZM135.207 57.4988C136.299 57.4988 137.197 57.219 137.902 56.6594C138.606 56.0998 139.128 55.364 139.467 54.4521C139.805 53.5401 139.974 52.5522 139.974 51.4883C139.974 50.4243 139.805 49.4329 139.467 48.5141C139.128 47.5952 138.606 46.8525 137.902 46.286C137.197 45.7195 136.299 45.4362 135.207 45.4362C134.116 45.4362 133.218 45.7195 132.513 46.286C131.808 46.8525 131.287 47.5952 130.948 48.5141C130.61 49.4329 130.44 50.4243 130.44 51.4883C130.44 52.5522 130.61 53.5401 130.948 54.4521C131.287 55.364 131.808 56.0998 132.513 56.6594C133.218 57.219 134.116 57.4988 135.207 57.4988Z" fill="#1E1E1E"/>
<path d="M146.153 59.3642V43.4465H148.516V45.8507H148.682C148.972 45.0632 149.497 44.4241 150.257 43.9336C151.017 43.4431 151.874 43.1978 152.827 43.1978C153.007 43.1978 153.231 43.2013 153.501 43.2082C153.77 43.2151 153.974 43.2254 154.112 43.2393V45.7264C154.029 45.7057 153.839 45.6746 153.542 45.6331C153.252 45.5848 152.945 45.5606 152.62 45.5606C151.846 45.5606 151.155 45.7229 150.547 46.0476C149.946 46.3654 149.47 46.8076 149.117 47.3741C148.772 47.9337 148.599 48.5728 148.599 49.2913V59.3642H146.153Z" fill="#1E1E1E"/>
<path d="M157.011 59.3642V43.4465H159.374V45.9336H159.581C159.913 45.0839 160.448 44.4241 161.188 43.9543C161.927 43.4776 162.815 43.2393 163.851 43.2393C164.901 43.2393 165.775 43.4776 166.473 43.9543C167.177 44.4241 167.727 45.0839 168.12 45.9336H168.286C168.694 45.1115 169.305 44.4586 170.121 43.975C170.936 43.4845 171.913 43.2393 173.053 43.2393C174.476 43.2393 175.641 43.6849 176.546 44.5761C177.451 45.4604 177.903 46.8387 177.903 48.7109V59.3642H175.457V48.7109C175.457 47.5365 175.136 46.6971 174.494 46.1927C173.851 45.6884 173.095 45.4362 172.224 45.4362C171.105 45.4362 170.238 45.7747 169.623 46.4518C169.008 47.1219 168.701 47.9717 168.701 49.0011V59.3642H166.214V48.4622C166.214 47.5572 165.92 46.8283 165.333 46.2756C164.746 45.716 163.989 45.4362 163.063 45.4362C162.428 45.4362 161.834 45.6055 161.281 45.944C160.735 46.2825 160.293 46.7523 159.954 47.3534C159.623 47.9475 159.457 48.635 159.457 49.4156V59.3642H157.011Z" fill="#1E1E1E"/>
<path d="M193.65 47.0114L191.453 47.6332C191.315 47.267 191.111 46.9112 190.841 46.5658C190.579 46.2135 190.22 45.9233 189.764 45.6953C189.308 45.4673 188.724 45.3533 188.012 45.3533C187.038 45.3533 186.226 45.5779 185.577 46.0269C184.935 46.4691 184.613 47.0321 184.613 47.7161C184.613 48.3241 184.834 48.8042 185.276 49.1566C185.719 49.5089 186.41 49.8025 187.349 50.0374L189.712 50.6178C191.135 50.9632 192.196 51.4917 192.893 52.2033C193.591 52.908 193.94 53.8165 193.94 54.9288C193.94 55.8407 193.677 56.656 193.152 57.3745C192.634 58.093 191.909 58.6595 190.976 59.074C190.043 59.4885 188.959 59.6958 187.722 59.6958C186.099 59.6958 184.755 59.3435 183.691 58.6388C182.627 57.9341 181.953 56.9047 181.67 55.5506L183.991 54.9702C184.213 55.8269 184.631 56.4694 185.245 56.8978C185.867 57.3261 186.679 57.5403 187.681 57.5403C188.821 57.5403 189.726 57.2985 190.396 56.8149C191.073 56.3243 191.411 55.7371 191.411 55.0531C191.411 54.5004 191.218 54.0376 190.831 53.6645C190.444 53.2845 189.85 53.0013 189.049 52.8147L186.396 52.1929C184.938 51.8475 183.867 51.3121 183.183 50.5867C182.506 49.8543 182.168 48.9389 182.168 47.8405C182.168 46.9423 182.42 46.1478 182.924 45.4569C183.435 44.7661 184.13 44.2237 185.007 43.8299C185.891 43.4362 186.893 43.2393 188.012 43.2393C189.588 43.2393 190.824 43.5847 191.722 44.2756C192.627 44.9664 193.27 45.8784 193.65 47.0114Z" fill="#1E1E1E"/>
<path d="M58.5887 155.033H74.5478M58.5887 161.417H64.9724M66.5683 174.184L60.1846 167.8H55.3969C54.5504 167.8 53.7385 167.464 53.1399 166.865C52.5414 166.267 52.2051 165.455 52.2051 164.609V151.841C52.2051 150.995 52.5414 150.183 53.1399 149.584C53.7385 148.986 54.5504 148.649 55.3969 148.649H77.7397C78.5862 148.649 79.398 148.986 79.9966 149.584C80.5952 150.183 80.9315 150.995 80.9315 151.841V164.609C80.9315 165.455 80.5952 166.267 79.9966 166.865C79.398 167.464 78.5862 167.8 77.7397 167.8H72.9519L66.5683 174.184Z" stroke="#1E1E1E" stroke-width="2" stroke-linecap="round" stroke-linejoin="round"/>
<path d="M106.531 171.45V150.227H113.702C115.361 150.227 116.722 150.51 117.786 151.076C118.849 151.636 119.637 152.406 120.148 153.387C120.66 154.368 120.915 155.484 120.915 156.735C120.915 157.985 120.66 159.094 120.148 160.061C119.637 161.028 118.853 161.788 117.796 162.341C116.739 162.887 115.388 163.16 113.744 163.16H107.941V160.838H113.661C114.794 160.838 115.706 160.673 116.397 160.341C117.095 160.009 117.599 159.54 117.91 158.932C118.228 158.317 118.387 157.584 118.387 156.735C118.387 155.885 118.228 155.142 117.91 154.507C117.592 153.871 117.084 153.38 116.387 153.035C115.689 152.683 114.766 152.506 113.62 152.506H109.101V171.45H106.531ZM116.521 161.916L121.744 171.45H118.76L113.62 161.916H116.521Z" fill="#1E1E1E"/>
<path d="M131.369 171.782C129.835 171.782 128.512 171.443 127.4 170.766C126.294 170.082 125.441 169.129 124.84 167.906C124.246 166.676 123.949 165.246 123.949 163.616C123.949 161.985 124.246 160.548 124.84 159.305C125.441 158.054 126.277 157.08 127.348 156.382C128.426 155.678 129.683 155.325 131.12 155.325C131.949 155.325 132.768 155.463 133.576 155.74C134.385 156.016 135.12 156.465 135.784 157.087C136.447 157.702 136.975 158.517 137.369 159.533C137.763 160.548 137.96 161.799 137.96 163.284V164.32H125.69V162.206H135.473C135.473 161.308 135.293 160.507 134.934 159.802C134.581 159.097 134.077 158.541 133.421 158.134C132.771 157.726 132.005 157.522 131.12 157.522C130.146 157.522 129.303 157.764 128.592 158.248C127.887 158.724 127.345 159.346 126.965 160.113C126.585 160.88 126.395 161.702 126.395 162.579V163.989C126.395 165.191 126.602 166.21 127.016 167.046C127.438 167.875 128.022 168.507 128.768 168.942C129.514 169.371 130.381 169.585 131.369 169.585C132.011 169.585 132.592 169.495 133.11 169.315C133.635 169.129 134.088 168.852 134.467 168.486C134.847 168.113 135.141 167.65 135.348 167.098L137.711 167.761C137.462 168.562 137.044 169.267 136.457 169.875C135.87 170.476 135.145 170.946 134.281 171.284C133.417 171.616 132.447 171.782 131.369 171.782Z" fill="#1E1E1E"/>
<path d="M152.955 159.097L150.758 159.719C150.62 159.353 150.416 158.997 150.147 158.652C149.884 158.299 149.525 158.009 149.069 157.781C148.613 157.553 148.029 157.439 147.318 157.439C146.344 157.439 145.532 157.664 144.882 158.113C144.24 158.555 143.919 159.118 143.919 159.802C143.919 160.41 144.14 160.89 144.582 161.243C145.024 161.595 145.715 161.888 146.654 162.123L149.017 162.704C150.44 163.049 151.501 163.578 152.199 164.289C152.896 164.994 153.245 165.902 153.245 167.015C153.245 167.927 152.983 168.742 152.458 169.46C151.94 170.179 151.214 170.745 150.282 171.16C149.349 171.574 148.264 171.782 147.028 171.782C145.404 171.782 144.06 171.429 142.996 170.725C141.932 170.02 141.259 168.991 140.975 167.637L143.297 167.056C143.518 167.913 143.936 168.555 144.551 168.984C145.173 169.412 145.984 169.626 146.986 169.626C148.126 169.626 149.031 169.384 149.701 168.901C150.378 168.41 150.717 167.823 150.717 167.139C150.717 166.586 150.523 166.124 150.136 165.75C149.75 165.37 149.155 165.087 148.354 164.901L145.701 164.279C144.243 163.933 143.172 163.398 142.488 162.673C141.811 161.94 141.473 161.025 141.473 159.926C141.473 159.028 141.725 158.234 142.229 157.543C142.741 156.852 143.435 156.31 144.312 155.916C145.197 155.522 146.198 155.325 147.318 155.325C148.893 155.325 150.13 155.671 151.028 156.361C151.933 157.052 152.575 157.964 152.955 159.097Z" fill="#1E1E1E"/>
<path d="M156.927 177.419V155.532H159.29V158.061H159.58C159.759 157.785 160.008 157.432 160.326 157.004C160.651 156.569 161.114 156.182 161.715 155.843C162.323 155.498 163.145 155.325 164.181 155.325C165.521 155.325 166.703 155.66 167.725 156.33C168.748 157.001 169.546 157.951 170.119 159.18C170.692 160.41 170.979 161.861 170.979 163.533C170.979 165.218 170.692 166.68 170.119 167.916C169.546 169.146 168.751 170.099 167.736 170.777C166.72 171.447 165.549 171.782 164.222 171.782C163.2 171.782 162.381 171.612 161.766 171.274C161.152 170.929 160.678 170.538 160.347 170.103C160.015 169.661 159.759 169.295 159.58 169.004H159.373V177.419H156.927ZM159.331 163.491C159.331 164.693 159.507 165.754 159.86 166.673C160.212 167.585 160.727 168.3 161.404 168.818C162.081 169.329 162.91 169.585 163.891 169.585C164.913 169.585 165.767 169.315 166.45 168.776C167.141 168.231 167.66 167.498 168.005 166.579C168.357 165.654 168.533 164.624 168.533 163.491C168.533 162.372 168.361 161.363 168.015 160.465C167.677 159.56 167.162 158.845 166.471 158.32C165.787 157.788 164.927 157.522 163.891 157.522C162.896 157.522 162.06 157.774 161.383 158.279C160.706 158.776 160.195 159.474 159.849 160.372C159.504 161.263 159.331 162.303 159.331 163.491Z" fill="#1E1E1E"/>
<path d="M181.176 171.782C179.739 171.782 178.479 171.44 177.394 170.756C176.316 170.072 175.473 169.115 174.865 167.885C174.264 166.655 173.964 165.218 173.964 163.574C173.964 161.916 174.264 160.469 174.865 159.232C175.473 157.995 176.316 157.035 177.394 156.351C178.479 155.667 179.739 155.325 181.176 155.325C182.613 155.325 183.871 155.667 184.949 156.351C186.033 157.035 186.876 157.995 187.477 159.232C188.085 160.469 188.389 161.916 188.389 163.574C188.389 165.218 188.085 166.655 187.477 167.885C186.876 169.115 186.033 170.072 184.949 170.756C183.871 171.44 182.613 171.782 181.176 171.782ZM181.176 169.585C182.268 169.585 183.166 169.305 183.871 168.745C184.575 168.186 185.097 167.45 185.436 166.538C185.774 165.626 185.943 164.638 185.943 163.574C185.943 162.51 185.774 161.519 185.436 160.6C185.097 159.681 184.575 158.938 183.871 158.372C183.166 157.805 182.268 157.522 181.176 157.522C180.085 157.522 179.187 157.805 178.482 158.372C177.777 158.938 177.256 159.681 176.917 160.6C176.579 161.519 176.409 162.51 176.409 163.574C176.409 164.638 176.579 165.626 176.917 166.538C177.256 167.45 177.777 168.186 178.482 168.745C179.187 169.305 180.085 169.585 181.176 169.585Z" fill="#1E1E1E"/>
<path d="M194.568 161.875V171.45H192.122V155.532H194.485V158.02H194.692C195.066 157.211 195.632 156.562 196.392 156.071C197.152 155.574 198.133 155.325 199.335 155.325C200.413 155.325 201.356 155.546 202.164 155.988C202.973 156.424 203.601 157.087 204.05 157.978C204.499 158.862 204.724 159.982 204.724 161.336V171.45H202.278V161.502C202.278 160.251 201.953 159.277 201.304 158.579C200.655 157.875 199.763 157.522 198.63 157.522C197.85 157.522 197.152 157.691 196.537 158.03C195.929 158.368 195.449 158.862 195.097 159.512C194.744 160.161 194.568 160.949 194.568 161.875Z" fill="#1E1E1E"/>
<path d="M220.468 159.097L218.271 159.719C218.133 159.353 217.929 158.997 217.66 158.652C217.397 158.299 217.038 158.009 216.582 157.781C216.126 157.553 215.542 157.439 214.83 157.439C213.856 157.439 213.045 157.664 212.395 158.113C211.753 158.555 211.431 159.118 211.431 159.802C211.431 160.41 211.652 160.89 212.095 161.243C212.537 161.595 213.228 161.888 214.167 162.123L216.53 162.704C217.953 163.049 219.014 163.578 219.711 164.289C220.409 164.994 220.758 165.902 220.758 167.015C220.758 167.927 220.496 168.742 219.971 169.46C219.452 170.179 218.727 170.745 217.794 171.16C216.862 171.574 215.777 171.782 214.54 171.782C212.917 171.782 211.573 171.429 210.509 170.725C209.445 170.02 208.772 168.991 208.488 167.637L210.81 167.056C211.031 167.913 211.449 168.555 212.064 168.984C212.685 169.412 213.497 169.626 214.499 169.626C215.639 169.626 216.544 169.384 217.214 168.901C217.891 168.41 218.23 167.823 218.23 167.139C218.23 166.586 218.036 166.124 217.649 165.75C217.262 165.37 216.668 165.087 215.867 164.901L213.214 164.279C211.756 163.933 210.685 163.398 210.001 162.673C209.324 161.94 208.986 161.025 208.986 159.926C208.986 159.028 209.238 158.234 209.742 157.543C210.253 156.852 210.948 156.31 211.825 155.916C212.709 155.522 213.711 155.325 214.83 155.325C216.406 155.325 217.642 155.671 218.54 156.361C219.445 157.052 220.088 157.964 220.468 159.097Z" fill="#1E1E1E"/>
<path d="M231.113 171.782C229.58 171.782 228.257 171.443 227.144 170.766C226.039 170.082 225.186 169.129 224.585 167.906C223.991 166.676 223.693 165.246 223.693 163.616C223.693 161.985 223.991 160.548 224.585 159.305C225.186 158.054 226.022 157.08 227.093 156.382C228.17 155.678 229.428 155.325 230.865 155.325C231.694 155.325 232.512 155.463 233.321 155.74C234.129 156.016 234.865 156.465 235.528 157.087C236.191 157.702 236.72 158.517 237.114 159.533C237.507 160.548 237.704 161.799 237.704 163.284V164.32H225.434V162.206H235.217C235.217 161.308 235.038 160.507 234.678 159.802C234.326 159.097 233.822 158.541 233.165 158.134C232.516 157.726 231.749 157.522 230.865 157.522C229.891 157.522 229.048 157.764 228.336 158.248C227.631 158.724 227.089 159.346 226.709 160.113C226.329 160.88 226.139 161.702 226.139 162.579V163.989C226.139 165.191 226.346 166.21 226.761 167.046C227.182 167.875 227.766 168.507 228.512 168.942C229.258 169.371 230.125 169.585 231.113 169.585C231.756 169.585 232.336 169.495 232.854 169.315C233.379 169.129 233.832 168.852 234.212 168.486C234.592 168.113 234.886 167.65 235.093 167.098L237.456 167.761C237.207 168.562 236.789 169.267 236.202 169.875C235.614 170.476 234.889 170.946 234.025 171.284C233.162 171.616 232.191 171.782 231.113 171.782Z" fill="#1E1E1E"/>
<path d="M252.7 159.097L250.503 159.719C250.365 159.353 250.161 158.997 249.891 158.652C249.629 158.299 249.27 158.009 248.814 157.781C248.358 157.553 247.774 157.439 247.062 157.439C246.088 157.439 245.276 157.664 244.627 158.113C243.984 158.555 243.663 159.118 243.663 159.802C243.663 160.41 243.884 160.89 244.326 161.243C244.769 161.595 245.459 161.888 246.399 162.123L248.762 162.704C250.185 163.049 251.245 163.578 251.943 164.289C252.641 164.994 252.99 165.902 252.99 167.015C252.99 167.927 252.727 168.742 252.202 169.46C251.684 170.179 250.959 170.745 250.026 171.16C249.093 171.574 248.009 171.782 246.772 171.782C245.148 171.782 243.805 171.429 242.741 170.725C241.677 170.02 241.003 168.991 240.72 167.637L243.041 167.056C243.262 167.913 243.68 168.555 244.295 168.984C244.917 169.412 245.729 169.626 246.731 169.626C247.871 169.626 248.776 169.384 249.446 168.901C250.123 168.41 250.461 167.823 250.461 167.139C250.461 166.586 250.268 166.124 249.881 165.75C249.494 165.37 248.9 165.087 248.099 164.901L245.446 164.279C243.988 163.933 242.917 163.398 242.233 162.673C241.556 161.94 241.217 161.025 241.217 159.926C241.217 159.028 241.47 158.234 241.974 157.543C242.485 156.852 243.18 156.31 244.057 155.916C244.941 155.522 245.943 155.325 247.062 155.325C248.637 155.325 249.874 155.671 250.772 156.361C251.677 157.052 252.32 157.964 252.7 159.097Z" fill="#1E1E1E"/>
</svg>
