<svg width="70" height="58" viewBox="0 0 70 58" fill="none" xmlns="http://www.w3.org/2000/svg">
<path d="M21.9194 57.0511C48.2057 57.0511 62.5873 35.3672 62.5873 16.5687C62.5873 15.9591 62.5737 15.336 62.5464 14.7264C65.3441 12.7124 67.7584 10.2178 69.676 7.35981C67.0704 8.51376 64.3041 9.2674 61.4714 9.59498C64.454 7.81529 66.6873 5.01947 67.7572 1.72581C64.9512 3.38113 61.8827 4.54882 58.683 5.17882C56.5271 2.89853 53.6766 1.3887 50.5722 0.882776C47.4679 0.37685 44.2825 0.903003 41.5087 2.37989C38.7349 3.85677 36.5271 6.20213 35.2266 9.05334C33.9261 11.9046 33.6054 15.1028 34.3141 18.1537C28.6325 17.8699 23.0742 16.4007 17.9996 13.8413C12.925 11.282 8.44732 7.68966 4.85691 3.29721C3.03206 6.42909 2.47366 10.1351 3.29518 13.6621C4.1167 17.1891 6.2565 20.2724 9.2797 22.2854C7.01007 22.2136 4.79015 21.6053 2.80337 20.5108V20.6869C2.80134 23.9735 3.94278 27.1595 6.03368 29.7032C8.12457 32.2468 11.0359 33.9912 14.2727 34.6398C12.1702 35.2124 9.96361 35.2958 7.82358 34.8836C8.73695 37.7102 10.514 40.1824 12.9068 41.9552C15.2996 43.728 18.1887 44.7129 21.1709 44.7726C16.108 48.7314 9.85385 50.8787 3.41576 50.8685C2.27401 50.8668 1.13339 50.7971 0 50.6599C6.54042 54.8368 14.1487 57.0552 21.9194 57.0511Z" fill="white"/>
</svg>
